<svg xmlns="http://www.w3.org/2000/svg" xmlns:xlink="http://www.w3.org/1999/xlink" viewBox="0 0 70.799 70.799"><defs><linearGradient id="b"><stop offset="0" stop-color="#2e95d6"/><stop offset="1" stop-color="#c0ffc0"/></linearGradient><linearGradient id="a"><stop offset="0" stop-color="#b03c03"/><stop offset="1" stop-color="#fdbc9c"/></linearGradient><linearGradient gradientTransform="translate(-1.169 105.88) scale(1.0854)" gradientUnits="userSpaceOnUse" y2="137.832" x2="94.378" y1="124.815" x1="90.441" id="c" xlink:href="#b"/><linearGradient xlink:href="#b" id="d" x1="90.441" y1="124.815" x2="94.378" y2="137.832" gradientUnits="userSpaceOnUse" gradientTransform="translate(28.56 105.552) scale(1.0854)"/></defs><g fill-rule="evenodd" stroke-linecap="round" transform="translate(-76.103 -217.655)"><circle cx="111.503" cy="253.055" r="34.738" fill="#f9f9f9" stroke="#162f5c" stroke-width="1.323"/><circle cx="111.73" cy="253.017" r="31.178" fill="#162f5c"/><path d="M114.361 246.92a14.55 18.423 0 0112.601-9.211 14.55 18.423 0 0112.601 9.211m-25.202 0a14.55 18.423 0 0012.601 9.212 14.55 18.423 0 0012.601-9.212" stroke-width="1.058" stroke="#000" fill="#fff"/><path d="M111.238 221.785a31.178 31.178 0 00-31.178 31.178 31.178 31.178 0 0031.178 31.179 31.178 31.178 0 008.775-1.26 31.178 31.178 0 01-21.432-29.616 31.178 31.178 0 0122.404-29.918 31.178 31.178 0 00-9.747-1.563z" fill="#f2f2f2"/><circle r="31.178" cy="252.942" cx="111.503" fill="none" stroke="#162f5c" stroke-width="1.323"/><path d="M84.465 247.048a14.55 18.423 0 0112.601-9.211 14.55 18.423 0 0112.601 9.211m-25.202 0a14.55 18.423 0 0012.601 9.212 14.55 18.423 0 0012.601-9.212" fill="#fff" stroke="#000" stroke-width="1.058"/><circle cx="97.271" cy="246.995" r="9.177" fill="url(#c)" stroke="#000" stroke-width=".862"/><ellipse cx="97.221" cy="246.947" rx="5.278" ry="6.778" stroke="#000" stroke-width="2.953"/><path d="M103.882 274.297s9.922-8.031 9.639-12m0 0h-4.826m9.639 12s-9.922-8.031-9.639-12" fill="none" stroke="#000" stroke-width="1.058"/><path d="M99.264 265.287l-9.22-1.337m8.953 4.277h-8.019m8.153 2.672l-5.48.935" stroke="#162f5c" fill="none" stroke-width=".529"/><path d="M122.851 265.086l9.22-1.337m-8.953 4.277h8.019m-8.153 2.672l5.48.935" stroke="#fff" fill="none" stroke-width=".529"/><path d="M96.458 235.352l-4.677-2.673m9.22 2.94l-4.677-4.944" stroke="#162f5c" fill="none" stroke-width=".529"/><path d="M127.661 235.285l4.677-2.673m-9.22 2.94l4.677-4.944" stroke="#fff" fill="none" stroke-width=".529"/><ellipse transform="rotate(-30.403)" ry="1.465" rx="2.079" cy="259.248" cx="-37.013" fill="#fff"/><path d="M110.526 265.417c-.535-.787-.935-1.58-1.134-2.243l-.09-.301h3.607l-.112.392c-.153.53-1.008 2.124-1.395 2.597l-.314.384z" fill="#e9afaf"/><circle r="9.177" cy="246.667" cx="127" fill="url(#d)" stroke="#000" stroke-width=".862"/><ellipse ry="6.778" rx="5.278" cy="246.648" cx="127.168" stroke="#000" stroke-width="2.953"/><ellipse cx="-17.422" cy="271.086" rx="2.079" ry="1.465" transform="rotate(-30.403)" fill="#fff"/><path d="M114.004 238.744l-2.076-.235-1.37 1.576-.418-2.046-1.923-.816 1.818-1.03.182-2.08 1.54 1.41 2.036-.47-.865 1.9z" fill="#fff"/></g></svg>