<svg version="1" xmlns="http://www.w3.org/2000/svg" width="682.667" height="682.667" viewBox="0 0 512.000000 512.000000"><path d="M236.8.5c-.2.1-3.4.6-7.3.9-3.8.3-8.1.8-9.5 1.1-1.4.3-4.1.8-6 1.1-2.8.4-9.5 1.7-15.5 3-8.4 1.8-27.1 7.4-33 9.9-1.6.7-4.8 2-7 2.8-10.9 4.1-42.5 21.1-47.9 25.8-.6.6-4.5 3.5-8.6 6.5-26.7 19.7-52.6 49.4-69.7 79.9-16.5 29.7-27.2 63.5-31 98-1.6 14.8-.3 65 1.7 65 .1 0 .3.9.4 2 1.9 14.5 7.7 36.1 14.3 53 3.8 9.7 14.9 32.6 18 37.2 1.1 1.5 4.1 6.2 6.8 10.3 19.9 31 52 61.4 85 80.5 12.2 7.1 42.9 20.7 49.5 22 .8.2 1.6.4 1.8.5.1.2.5.3 1 .4.4.1 3.3 1 6.5 1.9 6 1.9 21.2 5.2 28.2 6.2 2.2.4 5.1.8 6.5 1.1 13.8 2.6 53.5 2.5 71-.1 3.2-.5 22.5-4.2 26-5 14.4-3.3 40.5-13.2 55-20.8 32.3-17.2 55.5-35.9 80.2-64.5 14.1-16.2 31-44.7 39.8-66.7 3.5-8.7 9.7-27 10.4-30.7.2-1.3.9-4.1 1.4-6.3.6-2.2 1.4-5.5 1.7-7.4.3-1.9.7-3.7.9-4 .4-.7 1.3-5.9 2.2-12.9.3-2.6.8-5.8 1-7.2.9-4.8 1.1-45.6.3-52.5-1.4-12.4-1.9-15.9-3.5-23.5-.9-4.1-1.7-8.4-1.9-9.5-4.1-21.2-17.8-54.5-32.1-77.6-4.9-7.9-16-23.6-18.8-26.5-.6-.6-3.1-3.5-5.6-6.5-7.3-8.6-17.7-18.8-29.6-28.9-17.3-14.9-42.1-29.6-68.9-41.1-9.4-4-36.6-11.8-46.5-13.3-1.9-.3-4.6-.8-6-1.1-1.4-.3-4.5-.8-7-1.1-2.5-.3-5.6-.8-7-1-2.7-.6-46.6-1.4-47.2-.9z"/></svg>