<svg viewBox="0 0 606 980" fill="none" xmlns="http://www.w3.org/2000/svg"><path d="M530.258 926.655c-28.826-4.979-87.048-2.143-109.297 13.384m0 0c-6.319 4.41-7.311 10.042-2.692 14.805C439.152 976.379 603 996.054 603 937.347c0-67.634-137.959-59.222-215.688-53.502 74.027-206.468-18.731-396.044-71.671-465.024C339.868 306.435 296.957 284.163 310 254c13.043-30.163 11.137-74.42 5.641-94.273 27.255-44.753 24.9-131.566 7.402-138.296-13.997-5.384-59.445 45.09-80.42 70.999-21.804-9.691-67.521-9.758-87.15-5.72-19.516-40.042-49.127-100.36-70.662-79.411C55.201 36.102 66.753 108.58 74.717 142.23c-25.91 93.879 17.497 90.514 0 134.258-35.038 87.593-18.844 213.557-5.384 268.853C55.2 560.595 22.83 618.492 6.41 728.052c-16.42 109.56 30.447 187.872 55.796 211.987 0 13.871 12.053 18.582 40.378 18.582 19.517 15.478 51.819 20.862 85.528 7.664 24.84 11.852 65.891 19.255 92.534-11.441 19.18.673 46.772 11.441 68.643-7.739 17.161-1.979 58.482-6.884 71.672-7.066z" stroke="#fff" stroke-opacity=".8" stroke-width="7"/></svg>
