<svg viewBox="0 0 128 27" fill="none" xmlns="http://www.w3.org/2000/svg"><path d="M15.776 20.672c-.408 1.752-1.272 3.12-2.592 4.104-1.32.96-2.916 1.44-4.788 1.44-1.296 0-2.424-.204-3.384-.612-.96-.408-1.764-.972-2.412-1.692a6.912 6.912 0 01-1.44-2.52 10.425 10.425 0 01-.468-3.168v-9.72c0-.984.156-1.944.468-2.88A7.252 7.252 0 012.564 3.14c.648-.72 1.452-1.296 2.412-1.728.96-.432 2.1-.648 3.42-.648 2.016 0 3.648.528 4.896 1.584 1.272 1.056 2.112 2.376 2.52 3.96l-3.924 1.296a4.142 4.142 0 00-.36-1.044 3.088 3.088 0 00-.684-.9A3.155 3.155 0 009.8 4.976c-.408-.168-.876-.252-1.404-.252-.624 0-1.164.108-1.62.324a3.188 3.188 0 00-1.08.864c-.288.336-.504.72-.648 1.152a4.077 4.077 0 00-.216 1.296v9.972c0 .528.072 1.032.216 1.512.144.48.36.9.648 1.26.312.36.684.648 1.116.864.456.192.984.288 1.584.288.888 0 1.644-.252 2.268-.756.624-.504 1.02-1.2 1.188-2.088l3.924 1.26zm13.507-.072h-6.948c-.048.216-.144.576-.288 1.08-.144.504-.3 1.044-.468 1.62a50.462 50.462 0 01-.432 1.62c-.12.504-.216.864-.288 1.08h-4.284L23.81.944h3.96L35.043 26h-4.356l-1.404-5.4zm-4.752-8.712l-1.296 5.04h5.112l-1.26-5.004a84.171 84.171 0 00-.252-1.08 24.37 24.37 0 00-.36-1.584c-.12-.552-.24-1.068-.36-1.548-.12-.504-.192-.864-.216-1.08h-.18l-1.188 5.256zm19.083-7.2V26H39.51V4.688h-5.508V.944h15.156v3.744h-5.544zM51.27 26V.944h4.104v21.132h9.684V26H51.27zm30.957-7.596c0 1.2-.192 2.28-.576 3.24a6.882 6.882 0 01-1.584 2.484 6.832 6.832 0 01-2.412 1.548c-.936.36-1.968.54-3.096.54-1.368 0-2.544-.216-3.528-.648-.984-.456-1.788-1.056-2.412-1.8a7.766 7.766 0 01-1.332-2.628 11.476 11.476 0 01-.432-3.168V8.504c0-.888.132-1.788.396-2.7a7.54 7.54 0 011.332-2.484c.624-.744 1.416-1.356 2.376-1.836.984-.48 2.184-.72 3.6-.72 1.32 0 2.46.228 3.42.684.96.456 1.752 1.056 2.376 1.8a6.545 6.545 0 011.404 2.484c.312.912.468 1.836.468 2.772v9.9zM78.05 8.432c0-.312-.06-.672-.18-1.08a3.479 3.479 0 00-.54-1.224 3.271 3.271 0 00-1.08-.972c-.432-.288-.996-.432-1.692-.432s-1.284.132-1.764.396a3.28 3.28 0 00-1.116.936 3.64 3.64 0 00-.576 1.188c-.12.432-.18.84-.18 1.224l.036 9.576c0 1.2.276 2.208.828 3.024.552.816 1.488 1.224 2.808 1.224.936 0 1.74-.312 2.412-.936.696-.648 1.044-1.524 1.044-2.628V8.432zM92.94.764c1.008 0 1.92.144 2.736.432.84.264 1.572.648 2.196 1.152a6.556 6.556 0 011.548 1.8c.432.672.744 1.404.936 2.196l-3.924 1.224a4.142 4.142 0 00-.36-1.044 3.088 3.088 0 00-.684-.9 3.498 3.498 0 00-1.044-.648c-.408-.168-.876-.252-1.404-.252-.624 0-1.164.108-1.62.324a3.188 3.188 0 00-1.08.864c-.288.336-.504.72-.648 1.152a4.077 4.077 0 00-.216 1.296v10.008c0 .528.072 1.032.216 1.512.144.48.36.9.648 1.26.312.36.684.648 1.116.864.456.216.984.324 1.584.324 1.2 0 2.1-.336 2.7-1.008.624-.696.936-1.536.936-2.52v-2.952h-3.744v-3.564h7.848v5.94c0 1.2-.18 2.292-.54 3.276-.36.984-.876 1.824-1.548 2.52-.648.696-1.452 1.236-2.412 1.62-.96.384-2.04.576-3.24.576-1.296 0-2.424-.204-3.384-.612-.96-.408-1.764-.972-2.412-1.692a7.196 7.196 0 01-1.404-2.52 10.425 10.425 0 01-.468-3.168v-9.72c0-.984.144-1.944.432-2.88A7.252 7.252 0 0187.11 3.14c.648-.72 1.452-1.296 2.412-1.728.96-.432 2.1-.648 3.42-.648zM104.261 26V.944h4.14V26h-4.14zm22.866-5.328c-.408 1.752-1.272 3.12-2.592 4.104-1.32.96-2.916 1.44-4.788 1.44-1.296 0-2.424-.204-3.384-.612-.96-.408-1.764-.972-2.412-1.692a6.912 6.912 0 01-1.44-2.52 10.425 10.425 0 01-.468-3.168v-9.72c0-.984.156-1.944.468-2.88a7.252 7.252 0 011.404-2.484c.648-.72 1.452-1.296 2.412-1.728.96-.432 2.1-.648 3.42-.648 2.016 0 3.648.528 4.896 1.584 1.272 1.056 2.112 2.376 2.52 3.96l-3.924 1.296a4.142 4.142 0 00-.36-1.044 3.088 3.088 0 00-.684-.9 3.155 3.155 0 00-1.044-.684c-.408-.168-.876-.252-1.404-.252-.624 0-1.164.108-1.62.324a3.188 3.188 0 00-1.08.864c-.288.336-.504.72-.648 1.152a4.077 4.077 0 00-.216 1.296v9.972c0 .528.072 1.032.216 1.512.144.48.36.9.648 1.26.312.36.684.648 1.116.864.456.192.984.288 1.584.288.888 0 1.644-.252 2.268-.756.624-.504 1.02-1.2 1.188-2.088l3.924 1.26z" fill="#fff"/></svg>
