<svg width="263" height="23" viewBox="0 0 263 23" fill="none" xmlns="http://www.w3.org/2000/svg"><path d="M4.168 19.968c0 .848-.224 1.552-.672 2.112-.448.56-1.128.84-2.04.84H.76v-1.368h.48c.512-.016.872-.2 1.08-.552.208-.336.312-.784.312-1.344V6.144h1.536v13.824zM2.632 3.096v-1.56h1.56v1.56h-1.56zm12.822 13.896c-.32.432-.752.736-1.296.912-.544.16-1.128.24-1.752.24-1.136 0-2-.32-2.592-.96-.576-.656-.864-1.472-.864-2.448 0-.496.072-.968.216-1.416.16-.448.4-.832.72-1.152.32-.32.728-.576 1.224-.768.496-.192 1.088-.288 1.776-.288h2.64V9.48c0-.64-.2-1.144-.6-1.512-.384-.368-.976-.552-1.776-.552a3.74 3.74 0 00-1.488.288 2.005 2.005 0 00-1.032.888 6.46 6.46 0 01-.576-.36 17.98 17.98 0 00-.576-.384 3.442 3.442 0 011.44-1.344C11.542 6.168 12.286 6 13.15 6c.544 0 1.056.056 1.536.168.48.112.896.304 1.248.576.352.272.624.632.816 1.08.208.448.312 1.008.312 1.68V18h-1.536v-.984l-.072-.024zm.072-4.56h-2.688c-.72 0-1.312.176-1.776.528-.464.352-.696.912-.696 1.68 0 .624.208 1.136.624 1.536.416.384 1.032.576 1.848.576.352 0 .688-.04 1.008-.12.32-.08.6-.2.84-.36.256-.176.456-.4.6-.672.16-.288.24-.64.24-1.056v-2.112zm9.72 3.384c.064-.224.144-.52.24-.888.112-.384.224-.776.336-1.176.112-.416.216-.808.312-1.176l.264-.912c.096-.32.208-.728.336-1.224.144-.496.288-1.008.432-1.536.144-.528.288-1.04.432-1.536.144-.496.264-.904.36-1.224h1.632l-.528 1.632c-.192.624-.4 1.304-.624 2.04l-.696 2.28c-.224.768-.448 1.52-.672 2.256a55.735 55.735 0 01-.624 2.064c-.192.624-.36 1.152-.504 1.584h-1.536l-.528-1.584c-.192-.64-.4-1.328-.624-2.064-.224-.736-.456-1.488-.696-2.256-.224-.784-.448-1.544-.672-2.28a81.73 81.73 0 00-.648-2.04c-.192-.64-.36-1.184-.504-1.632h1.632c.096.32.216.728.36 1.224s.288 1.008.432 1.536c.16.528.312 1.04.456 1.536.144.496.264.904.36 1.224.016.064.08.304.192.72.128.416.256.872.384 1.368.144.48.272.928.384 1.344.128.416.208.656.24.72h.072zm14.25 1.176c-.32.432-.751.736-1.295.912-.544.16-1.128.24-1.752.24-1.136 0-2-.32-2.592-.96-.576-.656-.864-1.472-.864-2.448 0-.496.072-.968.216-1.416.16-.448.4-.832.72-1.152.32-.32.728-.576 1.224-.768.496-.192 1.088-.288 1.776-.288h2.64V9.48c0-.64-.2-1.144-.6-1.512-.384-.368-.976-.552-1.776-.552a3.74 3.74 0 00-1.488.288 2.005 2.005 0 00-1.032.888 6.46 6.46 0 01-.576-.36c-.208-.144-.4-.272-.576-.384a3.442 3.442 0 011.44-1.344C35.585 6.168 36.329 6 37.193 6c.544 0 1.056.056 1.536.168.48.112.896.304 1.248.576.352.272.624.632.816 1.08.208.448.312 1.008.312 1.68V18h-1.536v-.984l-.072-.024zm.073-4.56H36.88c-.72 0-1.312.176-1.776.528-.464.352-.696.912-.696 1.68 0 .624.208 1.136.624 1.536.416.384 1.032.576 1.848.576.352 0 .688-.04 1.008-.12.32-.08.6-.2.84-.36.256-.176.456-.4.6-.672.16-.288.24-.64.24-1.056v-2.112zm6.935 2.688c.544 1.12 1.504 1.68 2.88 1.68.72 0 1.304-.168 1.752-.504.464-.336.696-.864.696-1.584 0-.352-.064-.64-.192-.864a1.351 1.351 0 00-.504-.576 2.806 2.806 0 00-.792-.384c-.304-.112-.64-.216-1.008-.312a13.963 13.963 0 01-1.56-.48 5.275 5.275 0 01-1.2-.624 2.713 2.713 0 01-.744-.912c-.176-.352-.264-.776-.264-1.272 0-1.008.336-1.808 1.008-2.4.672-.592 1.6-.888 2.784-.888 1.008 0 1.824.192 2.448.576.624.384 1.072.92 1.344 1.608l-1.296.648c-.224-.496-.552-.864-.984-1.104-.432-.24-.944-.36-1.536-.36-.784 0-1.36.192-1.728.576a1.83 1.83 0 00-.552 1.344c0 .32.072.584.216.792.16.192.368.36.624.504.272.144.576.264.912.36.352.096.728.2 1.128.312.56.128 1.048.28 1.464.456.432.176.792.4 1.08.672.288.272.504.6.648.984.144.368.216.824.216 1.368 0 1.024-.344 1.856-1.032 2.496-.672.624-1.672.936-3 .936-1.968 0-3.32-.784-4.056-2.352l1.248-.696zm17.434.24c.208.128.416.248.624.36.208.096.424.2.648.312a3.288 3.288 0 01-1.344 1.56c-.608.368-1.336.552-2.184.552-.896 0-1.624-.152-2.184-.456-.56-.32-1-.752-1.32-1.296-.32-.56-.544-1.224-.672-1.992-.112-.768-.168-1.6-.168-2.496 0-.832.072-1.608.216-2.328.16-.72.408-1.344.744-1.872a3.797 3.797 0 011.368-1.248C60.226 6.152 60.914 6 61.73 6c.864 0 1.584.192 2.16.576a3.47 3.47 0 011.344 1.56l-1.272.744a2.203 2.203 0 00-.84-1.056c-.384-.272-.84-.408-1.368-.408-.624 0-1.128.128-1.512.384-.384.24-.68.568-.888.984a5.25 5.25 0 00-.408 1.44 14.586 14.586 0 00-.096 1.704c0 .592.032 1.176.096 1.752.064.576.2 1.096.408 1.56.208.448.496.816.864 1.104.384.272.88.408 1.488.408.544 0 1.008-.128 1.392-.384.384-.272.664-.608.84-1.008zm7.15-7.584c.336-.688.76-1.152 1.272-1.392.512-.256 1.096-.384 1.752-.384.208 0 .408.024.6.072.192.032.36.08.504.144l-.336 1.608a2.19 2.19 0 00-.576-.168 2.275 2.275 0 00-.552-.072c-.816 0-1.48.256-1.992.768-.496.512-.744 1.264-.744 2.256V18h-1.488V6.144h1.488v1.632h.072zm8.012-4.68V1.512h1.56v1.584H79.1zM79.124 18V6.144h1.512V18h-1.512zm8.005-10.464c.367-.56.8-.952 1.295-1.176A3.643 3.643 0 0190.032 6c.817 0 1.465.168 1.945.504a3.03 3.03 0 011.103 1.344c.257.544.424 1.184.505 1.92.08.72.12 1.472.12 2.256 0 .752-.049 1.496-.144 2.232a6.1 6.1 0 01-.529 1.944 3.437 3.437 0 01-1.175 1.392c-.496.352-1.16.528-1.992.528-.608 0-1.128-.12-1.56-.36a3.936 3.936 0 01-1.177-1.032h-.047v6.096h-1.489V6.168h1.489v1.344c.016 0 .031.008.047.024zm2.447 9.144c.593 0 1.056-.128 1.393-.384.352-.256.616-.6.791-1.032a5.04 5.04 0 00.337-1.464c.064-.56.096-1.136.096-1.728 0-.624-.032-1.216-.096-1.776-.048-.576-.16-1.072-.337-1.488-.175-.432-.431-.768-.767-1.008-.337-.256-.792-.384-1.368-.384-.624 0-1.112.152-1.465.456A2.54 2.54 0 0087.418 9c-.16.448-.257.944-.288 1.488a26.605 26.605 0 00-.049 1.56c0 .48.017.992.049 1.536.031.544.127 1.048.287 1.512.177.448.425.824.745 1.128.335.304.808.456 1.415.456zM101.547 18c-.864 0-1.512-.24-1.944-.72-.416-.48-.624-1.128-.624-1.944V7.392h-1.416V6.144h1.416v-3.12h1.512v3.12h1.824v1.248h-1.824v7.56c0 .528.088.944.264 1.248.192.304.568.456 1.128.456h.648V18h-.984zm22.686 0h-1.464l-1.656-5.976a22.79 22.79 0 01-.192-.696c-.08-.304-.168-.624-.264-.96-.08-.336-.168-.656-.264-.96a88.21 88.21 0 00-.192-.72h-.024l-.96 3.552-1.584 5.76h-1.488l-3.24-11.832h1.584l1.584 6.192c.176.672.328 1.296.456 1.872.144.576.256 1.032.336 1.368h.096l.816-3.072c.096-.352.216-.808.36-1.368.16-.576.32-1.176.48-1.8.176-.624.336-1.224.48-1.8.16-.576.288-1.04.384-1.392h1.464a330.689 330.689 0 011.656 6.264c.128.544.264 1.088.408 1.632.144.528.288 1.064.432 1.608h.072l.816-3.168.168-.672c.08-.336.168-.712.264-1.128.112-.432.224-.88.336-1.344.128-.48.24-.936.336-1.368.112-.432.208-.808.288-1.128.08-.32.136-.552.168-.696h1.584L124.233 18zm14.195-2.04a3.502 3.502 0 01-1.392 1.608c-.624.384-1.328.576-2.112.576-.848 0-1.552-.12-2.112-.36a3.134 3.134 0 01-1.344-1.152c-.336-.512-.576-1.152-.72-1.92-.144-.768-.216-1.672-.216-2.712 0-.752.056-1.488.168-2.208.112-.72.32-1.36.624-1.92.32-.56.744-1.008 1.272-1.344.544-.352 1.24-.528 2.088-.528.72 0 1.336.128 1.848.384.528.24.952.584 1.272 1.032.336.432.576.952.72 1.56.16.608.24 1.272.24 1.992v1.488h-6.744c0 .656.04 1.248.12 1.776.08.528.224.984.432 1.368.224.384.512.68.864.888.368.208.84.312 1.416.312a2.39 2.39 0 001.392-.432c.416-.288.72-.64.912-1.056l1.272.648zm-1.176-4.776c0-.544-.04-1.048-.12-1.512a3.31 3.31 0 00-.384-1.2 1.78 1.78 0 00-.768-.768c-.32-.192-.744-.288-1.272-.288-.512 0-.936.096-1.272.288a2.218 2.218 0 00-.816.816 3.655 3.655 0 00-.408 1.2c-.08.464-.128.968-.144 1.512h5.184v-.048zm7.416 5.448c-.016 0-.024.008-.024.024h-.024V18h-1.488V.6h1.488v7.08h.048c.32-.496.72-.896 1.2-1.2.48-.304 1.056-.456 1.728-.456.832 0 1.488.168 1.968.504a3.03 3.03 0 011.104 1.344c.256.56.416 1.2.48 1.92.064.704.096 1.432.096 2.184 0 .8-.04 1.576-.12 2.328-.08.736-.248 1.392-.504 1.968a3.435 3.435 0 01-1.104 1.368c-.48.336-1.128.504-1.944.504a3.86 3.86 0 01-1.608-.336c-.496-.224-.928-.616-1.296-1.176zm2.496-9.144c-.576 0-1.032.144-1.368.432a2.777 2.777 0 00-.768 1.08 5.585 5.585 0 00-.36 1.44c-.048.512-.072 1-.072 1.464 0 .496.008 1.032.024 1.608.032.56.128 1.08.288 1.56.16.48.408.88.744 1.2.352.32.856.48 1.512.48.544 0 .984-.112 1.32-.336.352-.24.616-.568.792-.984.176-.416.296-.904.36-1.464.064-.576.096-1.2.096-1.872 0-.656-.032-1.264-.096-1.824-.048-.56-.16-1.048-.336-1.464a2.101 2.101 0 00-.768-.96c-.336-.24-.792-.36-1.368-.36zm22.057 9.144c-.368.56-.8.952-1.296 1.176a3.86 3.86 0 01-1.608.336c-.816 0-1.464-.16-1.944-.48a3.29 3.29 0 01-1.104-1.32c-.256-.56-.424-1.2-.504-1.92a21.095 21.095 0 010-4.512c.08-.736.256-1.392.528-1.968a3.51 3.51 0 011.152-1.392c.512-.352 1.192-.528 2.04-.528.608 0 1.128.12 1.56.36.448.24.84.584 1.176 1.032h.048V.6h1.488V18h-1.488v-1.344c-.016 0-.032-.008-.048-.024zm-2.448-9.144c-.592 0-1.064.136-1.416.408-.336.256-.6.6-.792 1.032a5.086 5.086 0 00-.336 1.488 19.4 19.4 0 00-.072 1.704c0 .624.032 1.224.096 1.8.064.56.184 1.048.36 1.464.176.416.432.752.768 1.008.336.24.784.36 1.344.36.64 0 1.128-.16 1.464-.48.352-.336.608-.744.768-1.224.16-.496.248-1.024.264-1.584.032-.576.048-1.096.048-1.56 0-.528-.024-1.048-.072-1.56-.048-.528-.16-1-.336-1.416a2.24 2.24 0 00-.744-1.032c-.336-.272-.784-.408-1.344-.408zm16.294 8.472a3.502 3.502 0 01-1.392 1.608c-.624.384-1.328.576-2.112.576-.848 0-1.552-.12-2.112-.36a3.134 3.134 0 01-1.344-1.152c-.336-.512-.576-1.152-.72-1.92-.144-.768-.216-1.672-.216-2.712 0-.752.056-1.488.168-2.208.112-.72.32-1.36.624-1.92.32-.56.744-1.008 1.272-1.344.544-.352 1.24-.528 2.088-.528.72 0 1.336.128 1.848.384.528.24.952.584 1.272 1.032.336.432.576.952.72 1.56.16.608.24 1.272.24 1.992v1.488h-6.744c0 .656.04 1.248.12 1.776.08.528.224.984.432 1.368.224.384.512.68.864.888.368.208.84.312 1.416.312a2.39 2.39 0 001.392-.432c.416-.288.72-.64.912-1.056l1.272.648zm-1.176-4.776c0-.544-.04-1.048-.12-1.512a3.31 3.31 0 00-.384-1.2 1.78 1.78 0 00-.768-.768c-.32-.192-.744-.288-1.272-.288-.512 0-.936.096-1.272.288a2.218 2.218 0 00-.816.816 3.655 3.655 0 00-.408 1.2c-.08.464-.128.968-.144 1.512h5.184v-.048zm9.456 4.632c.064-.224.144-.52.24-.888.112-.384.224-.776.336-1.176.112-.416.216-.808.312-1.176l.264-.912c.096-.32.208-.728.336-1.224.144-.496.288-1.008.432-1.536.144-.528.288-1.04.432-1.536.144-.496.264-.904.36-1.224h1.632l-.528 1.632c-.192.624-.4 1.304-.624 2.04l-.696 2.28c-.224.768-.448 1.52-.672 2.256a55.735 55.735 0 01-.624 2.064c-.192.624-.36 1.152-.504 1.584h-1.536l-.528-1.584c-.192-.64-.4-1.328-.624-2.064-.224-.736-.456-1.488-.696-2.256-.224-.784-.448-1.544-.672-2.28a81.73 81.73 0 00-.648-2.04c-.192-.64-.36-1.184-.504-1.632h1.632c.096.32.216.728.36 1.224s.288 1.008.432 1.536c.16.528.312 1.04.456 1.536.144.496.264.904.36 1.224.016.064.08.304.192.72.128.416.256.872.384 1.368.144.48.272.928.384 1.344.128.416.208.656.24.72h.072zm15.246.144a3.502 3.502 0 01-1.392 1.608c-.624.384-1.328.576-2.112.576-.848 0-1.552-.12-2.112-.36a3.134 3.134 0 01-1.344-1.152c-.336-.512-.576-1.152-.72-1.92-.144-.768-.216-1.672-.216-2.712 0-.752.056-1.488.168-2.208.112-.72.32-1.36.624-1.92.32-.56.744-1.008 1.272-1.344.544-.352 1.24-.528 2.088-.528.72 0 1.336.128 1.848.384.528.24.952.584 1.272 1.032.336.432.576.952.72 1.56.16.608.24 1.272.24 1.992v1.488h-6.744c0 .656.04 1.248.12 1.776.08.528.224.984.432 1.368.224.384.512.68.864.888.368.208.84.312 1.416.312a2.39 2.39 0 001.392-.432c.416-.288.72-.64.912-1.056l1.272.648zm-1.176-4.776c0-.544-.04-1.048-.12-1.512a3.31 3.31 0 00-.384-1.2 1.78 1.78 0 00-.768-.768c-.32-.192-.744-.288-1.272-.288-.512 0-.936.096-1.272.288a2.218 2.218 0 00-.816.816 3.655 3.655 0 00-.408 1.2c-.08.464-.128.968-.144 1.512h5.184v-.048zm8.929 6.888c-.416 0-.8-.04-1.152-.12a2.164 2.164 0 01-.864-.408 1.996 1.996 0 01-.552-.816c-.112-.352-.168-.784-.168-1.296V.6h1.512v14.544c0 .512.088.904.264 1.176.192.256.536.384 1.032.384h.432v1.368h-.504zM222.864 6c.8 0 1.464.16 1.992.48.544.304.976.704 1.296 1.2.304.416.512 1.024.624 1.824.112.8.168 1.664.168 2.592 0 .288-.008.608-.024.96-.016.336-.048.68-.096 1.032-.032.336-.08.656-.144.96-.048.304-.104.56-.168.768-.304.864-.808 1.472-1.512 1.824-.688.352-1.464.528-2.328.528-.816 0-1.488-.152-2.016-.456a3.383 3.383 0 01-1.2-1.176c-.32-.432-.544-1.024-.672-1.776a18.273 18.273 0 01-.168-2.616c0-.768.032-1.48.096-2.136.064-.672.184-1.232.36-1.68.304-.752.776-1.328 1.416-1.728.656-.4 1.448-.6 2.376-.6zm-.048 1.368c-.512 0-.968.12-1.368.36-.4.224-.712.568-.936 1.032-.176.32-.288.792-.336 1.416-.048.608-.072 1.32-.072 2.136 0 .816.04 1.504.12 2.064.08.544.232.976.456 1.296.432.752 1.128 1.128 2.088 1.128.528 0 1.008-.128 1.44-.384.432-.272.744-.688.936-1.248.128-.32.208-.76.24-1.32.032-.576.048-1.2.048-1.872 0-.72-.032-1.344-.096-1.872-.048-.544-.136-.96-.264-1.248-.192-.496-.488-.864-.888-1.104-.384-.256-.84-.384-1.368-.384zm10.145.168c.368-.56.8-.952 1.296-1.176a3.643 3.643 0 011.608-.36c.816 0 1.464.168 1.944.504a3.03 3.03 0 011.104 1.344c.256.544.424 1.184.504 1.92.08.72.12 1.472.12 2.256 0 .752-.048 1.496-.144 2.232a6.1 6.1 0 01-.528 1.944 3.437 3.437 0 01-1.176 1.392c-.496.352-1.16.528-1.992.528-.608 0-1.128-.12-1.56-.36a3.936 3.936 0 01-1.176-1.032h-.048v6.096h-1.488V6.168h1.488v1.344c.016 0 .032.008.048.024zm2.448 9.144c.592 0 1.056-.128 1.392-.384.352-.256.616-.6.792-1.032a5.04 5.04 0 00.336-1.464c.064-.56.096-1.136.096-1.728 0-.624-.032-1.216-.096-1.776-.048-.576-.16-1.072-.336-1.488-.176-.432-.432-.768-.768-1.008-.336-.256-.792-.384-1.368-.384-.624 0-1.112.152-1.464.456A2.54 2.54 0 00233.249 9c-.16.448-.256.944-.288 1.488a26.605 26.605 0 00-.048 1.56c0 .48.016.992.048 1.536s.128 1.048.288 1.512c.176.448.424.824.744 1.128.336.304.808.456 1.416.456zm16.363-.72a3.502 3.502 0 01-1.392 1.608c-.624.384-1.328.576-2.112.576-.848 0-1.552-.12-2.112-.36a3.134 3.134 0 01-1.344-1.152c-.336-.512-.576-1.152-.72-1.92-.144-.768-.216-1.672-.216-2.712 0-.752.056-1.488.168-2.208.112-.72.32-1.36.624-1.92.32-.56.744-1.008 1.272-1.344.544-.352 1.24-.528 2.088-.528.72 0 1.336.128 1.848.384.528.24.952.584 1.272 1.032.336.432.576.952.72 1.56.16.608.24 1.272.24 1.992v1.488h-6.744c0 .656.04 1.248.12 1.776.08.528.224.984.432 1.368.224.384.512.68.864.888.368.208.84.312 1.416.312a2.39 2.39 0 001.392-.432c.416-.288.72-.64.912-1.056l1.272.648zm-1.176-4.776c0-.544-.04-1.048-.12-1.512a3.31 3.31 0 00-.384-1.2 1.78 1.78 0 00-.768-.768c-.32-.192-.744-.288-1.272-.288-.512 0-.936.096-1.272.288a2.218 2.218 0 00-.816.816 3.655 3.655 0 00-.408 1.2c-.08.464-.128.968-.144 1.512h5.184v-.048zm7.8-3.408c.336-.688.76-1.152 1.272-1.392.512-.256 1.096-.384 1.752-.384.208 0 .408.024.6.072.192.032.36.08.504.144l-.336 1.608a2.19 2.19 0 00-.576-.168 2.275 2.275 0 00-.552-.072c-.816 0-1.48.256-1.992.768-.496.512-.744 1.264-.744 2.256V18h-1.488V6.144h1.488v1.632h.072z" fill="#fff"/></svg>